<?xml version="1.0" standalone="no"?>
<!DOCTYPE svg PUBLIC "-//W3C//DTD SVG 20010904//EN"
 "http://www.w3.org/TR/2001/REC-SVG-20010904/DTD/svg10.dtd">
<svg version="1.0" xmlns="http://www.w3.org/2000/svg"
 width="269.000000pt" height="187.000000pt" viewBox="0 0 269.000000 187.000000"
 preserveAspectRatio="xMidYMid meet">
<metadata>
Created by potrace 1.16, written by Peter Selinger 2001-2019
</metadata>
<g transform="translate(0.000000,187.000000) scale(0.100000,-0.100000)"
fill="#000000" stroke="none">
<path d="M731 1849 c-253 -11 -407 -31 -476 -63 -64 -29 -137 -94 -170 -150
-57 -99 -80 -352 -72 -803 8 -454 27 -558 119 -658 59 -65 145 -110 238 -125
308 -49 1544 -52 1903 -5 164 22 262 76 323 181 61 103 89 386 81 797 -10 495
-47 644 -181 732 -64 42 -132 61 -266 74 -278 28 -1055 39 -1499 20z m682
-701 c172 -105 320 -196 329 -203 14 -9 -35 -43 -308 -210 -179 -110 -329
-201 -335 -203 -5 -2 -9 154 -9 402 0 223 3 406 6 406 3 0 146 -86 317 -192z"/>
</g>
</svg>
